<?xml version="1.0" encoding="UTF-8"?>
<svg width="90px" height="70px" viewBox="0 0 90 70" version="1.1" xmlns="http://www.w3.org/2000/svg" xmlns:xlink="http://www.w3.org/1999/xlink">
    <title>original</title>
    <g id="original" stroke="none" stroke-width="1" fill="none" fill-rule="evenodd">
        <path d="M10,0 L10,30 L20,30 L20,10 L50,10 L50,50 L60,50 L60,10 L90,10 L90,70 L80,70 L80,20 L70,20 L70,60 L40,60 L40,20 L30,20 L30,40 L0,40 L0,0 L10,0 Z M10,50 L10,60 L0,60 L0,50 L10,50 Z M30,50 L30,60 L20,60 L20,50 L30,50 Z" id="k:" fill="#FF000A"></path>
        <path d="M0,60 L0,0 L10,0 L10,50 L20,50 L20,10 L50,10 L50,50 L60,50 L60,10 L90,10 L90,70 L80,70 L80,20 L70,20 L70,60 L40,60 L40,20 L30,20 L30,60 L0,60 Z" id="k" fill="#FF000A"></path>
        <path d="M50,60 L50,70 L40,70 L40,60 L0,60 L0,30 L20,30 L20,20 L0,20 L0,0 L10,0 L10,10 L30,10 L30,40 L10,40 L10,50 L40,50 L40,10 L90,10 L90,60 L50,60 Z M80,20 L50,20 L50,50 L80,50 L80,20 Z M70,30 L70,40 L60,40 L60,30 L70,30 Z" id="b" fill="#FF000A"></path>
        <path d="M10,40 L10,50 L60,50 L60,10 L90,10 L90,70 L80,70 L80,20 L70,20 L70,60 L0,60 L0,30 L40,30 L40,20 L0,20 L0,0 L10,0 L10,10 L50,10 L50,40 L10,40 Z" id="t" fill="#FF000A"></path>
        <path d="M10,0 L10,10 L50,10 L50,40 L30,40 L30,50 L60,50 L60,10 L90,10 L90,70 L80,70 L80,20 L70,20 L70,60 L20,60 L20,30 L40,30 L40,20 L0,20 L0,0 L10,0 Z M10,50 L10,60 L0,60 L0,50 L10,50 Z M10,30 L10,40 L0,40 L0,30 L10,30 Z" id="t:" fill="#FF000A"></path>
        <path d="M90,60 L60,60 L60,40 L50,40 L50,70 L40,70 L40,30 L70,30 L70,50 L80,50 L80,20 L30,20 L30,60 L0,60 L0,0 L10,0 L10,50 L20,50 L20,10 L90,10 L90,60 Z" id="s" fill="#FF000A"></path>
        <path d="M90,60 L60,60 L60,40 L50,40 L50,70 L40,70 L40,30 L70,30 L70,50 L80,50 L80,20 L30,20 L30,40 L0,40 L0,0 L10,0 L10,30 L20,30 L20,10 L90,10 L90,60 Z M10,50 L10,60 L0,60 L0,50 L10,50 Z M30,50 L30,60 L20,60 L20,50 L30,50 Z" id="s:" fill="#FF000A"></path>
        <path d="M90,70 L80,70 L80,60 L0,60 L0,30 L80,30 L80,20 L0,20 L0,0 L10,0 L10,10 L90,10 L90,40 L10,40 L10,50 L90,50 L90,70 Z" id="n" fill="#FF000A"></path>
        <path d="M90,70 L80,70 L80,60 L20,60 L20,30 L80,30 L80,20 L0,20 L0,0 L10,0 L10,10 L90,10 L90,40 L30,40 L30,50 L90,50 L90,70 Z M10,30 L10,60 L0,60 L0,30 L10,30 Z" id="n:" fill="#FF000A"></path>
        <path d="M90,10 L90,70 L80,70 L80,20 L30,20 L30,30 L70,30 L70,60 L0,60 L0,0 L10,0 L10,50 L60,50 L60,40 L20,40 L20,10 L90,10 Z" id="r" fill="#FF000A"></path>
        <path d="M90,10 L90,40 L70,40 L70,50 L90,50 L90,70 L80,70 L80,60 L60,60 L60,30 L80,30 L80,20 L30,20 L30,30 L50,30 L50,60 L0,60 L0,0 L10,0 L10,50 L40,50 L40,40 L20,40 L20,10 L90,10 Z" id="d" fill="#FF000A"></path>
        <path d="M90,40 L70,40 L70,70 L60,70 L60,30 L80,30 L80,20 L0,20 L0,0 L10,0 L10,10 L90,10 L90,40 Z M90,50 L90,60 L80,60 L80,50 L90,50 Z M50,30 L50,60 L0,60 L0,30 L50,30 Z M40,40 L10,40 L10,50 L40,50 L40,40 Z" id="e" fill="#FF000A"></path>
        <path d="M90,70 L80,70 L80,40 L70,40 L70,60 L20,60 L20,40 L0,40 L0,0 L10,0 L10,30 L20,30 L20,10 L70,10 L70,30 L90,30 L90,70 Z M10,50 L10,60 L0,60 L0,50 L10,50 Z M60,40 L30,40 L30,50 L60,50 L60,40 Z M60,20 L30,20 L30,30 L60,30 L60,20 Z M90,10 L90,20 L80,20 L80,10 L90,10 Z" id="a" fill="#FF000A"></path>
        <path d="M40,30 L40,10 L90,10 L90,40 L50,40 L50,50 L90,50 L90,70 L80,70 L80,60 L40,60 L40,40 L30,40 L30,60 L0,60 L0,0 L10,0 L10,50 L20,50 L20,30 L40,30 Z M80,20 L50,20 L50,30 L80,30 L80,20 Z M30,10 L30,20 L20,20 L20,10 L30,10 Z" id="m" fill="#FF000A"></path>
        <path d="M70,40 L70,70 L60,70 L60,40 L50,40 L50,60 L20,60 L20,30 L40,30 L40,20 L0,20 L0,0 L10,0 L10,10 L50,10 L50,30 L60,30 L60,10 L90,10 L90,40 L70,40 Z M90,50 L90,60 L80,60 L80,50 L90,50 Z M10,30 L10,60 L0,60 L0,30 L10,30 Z M40,40 L30,40 L30,50 L40,50 L40,40 Z M80,20 L70,20 L70,30 L80,30 L80,20 Z" id="j:" fill="#FF000A"></path>
        <path d="M70,40 L70,70 L60,70 L60,40 L50,40 L50,60 L0,60 L0,30 L40,30 L40,20 L0,20 L0,0 L10,0 L10,10 L50,10 L50,30 L60,30 L60,10 L90,10 L90,40 L70,40 Z M90,50 L90,60 L80,60 L80,50 L90,50 Z M40,40 L10,40 L10,50 L40,50 L40,40 Z M80,20 L70,20 L70,30 L80,30 L80,20 Z" id="j" fill="#FF000A"></path>
        <path d="M50,50 L60,50 L60,10 L90,10 L90,70 L80,70 L80,20 L70,20 L70,60 L40,60 L40,40 L30,40 L30,60 L0,60 L0,30 L20,30 L20,20 L0,20 L0,0 L10,0 L10,10 L30,10 L30,30 L50,30 L50,50 Z M20,40 L10,40 L10,50 L20,50 L20,40 Z M50,10 L50,20 L40,20 L40,10 L50,10 Z" id="h" fill="#FF000A"></path>
        <path d="M70,30 L90,30 L90,70 L80,70 L80,40 L70,40 L70,60 L0,60 L0,30 L60,30 L60,20 L0,20 L0,0 L10,0 L10,10 L70,10 L70,30 Z M60,40 L10,40 L10,50 L60,50 L60,40 Z M90,10 L90,20 L80,20 L80,10 L90,10 Z" id="g" fill="#FF000A"></path>
        <path d="M70,60 L70,70 L60,70 L60,60 L0,60 L0,0 L10,0 L10,50 L60,50 L60,10 L90,10 L90,60 L70,60 Z M80,20 L70,20 L70,50 L80,50 L80,20 Z M50,10 L50,40 L20,40 L20,10 L50,10 Z M40,20 L30,20 L30,30 L40,30 L40,20 Z" id="i" fill="#FF000A"></path>
        <path d="M50,30 L60,30 L60,10 L90,10 L90,60 L40,60 L40,40 L10,40 L10,50 L30,50 L30,70 L20,70 L20,60 L0,60 L0,30 L40,30 L40,20 L0,20 L0,0 L10,0 L10,10 L50,10 L50,30 Z M80,20 L70,20 L70,40 L50,40 L50,50 L80,50 L80,20 Z" id="v" fill="#FF000A"></path>
        <path d="M90,60 L70,60 L70,70 L60,70 L60,60 L0,60 L0,30 L70,30 L70,50 L80,50 L80,20 L0,20 L0,0 L10,0 L10,10 L90,10 L90,60 Z M60,40 L10,40 L10,50 L60,50 L60,40 Z" id="l" fill="#FF000A"></path>
        <path d="M0,60 L0,0 L10,0 L10,50 L40,50 L40,40 L20,40 L20,10 L50,10 L50,30 L60,30 L60,10 L90,10 L90,40 L70,40 L70,50 L90,50 L90,70 L80,70 L80,60 L60,60 L60,40 L50,40 L50,60 L0,60 Z M40,20 L30,20 L30,30 L40,30 L40,20 Z M80,20 L70,20 L70,30 L80,30 L80,20 Z" id="f" fill="#FF000A"></path>
        <path d="M90,70 L80,70 L80,60 L0,60 L0,0 L10,0 L10,50 L90,50 L90,70 Z M90,10 L90,40 L20,40 L20,10 L90,10 Z M80,20 L30,20 L30,30 L80,30 L80,20 Z" id="o" fill="#FF000A"></path>
    </g>
</svg>