<?xml version="1.0" encoding="UTF-8"?>
<svg width="130px" height="130px" viewBox="0 0 130 130" version="1.1" xmlns="http://www.w3.org/2000/svg" xmlns:xlink="http://www.w3.org/1999/xlink">
    <title>original copy</title>
    <g id="original-copy" stroke="none" stroke-width="1" fill="none" fill-rule="evenodd">
      <path d="M30,30 L30,60 L40,60 L40,40 L70,40 L70,80 L80,80 L80,40 L110,40 L110,100 L100,100 L100,50 L90,50 L90,90 L60,90 L60,50 L50,50 L50,70 L20,70 L20,30 L30,30 Z M30,80 L30,90 L20,90 L20,80 L30,80 Z M50,80 L50,90 L40,90 L40,80 L50,80 Z" id="k:"></path>
      <path d="M20,90 L20,30 L30,30 L30,80 L40,80 L40,40 L70,40 L70,80 L80,80 L80,40 L110,40 L110,100 L100,100 L100,50 L90,50 L90,90 L60,90 L60,50 L50,50 L50,90 L20,90 Z" id="k"></path>
      <path d="M70,90 L70,100 L60,100 L60,90 L20,90 L20,60 L40,60 L40,50 L20,50 L20,30 L30,30 L30,40 L50,40 L50,70 L30,70 L30,80 L60,80 L60,40 L110,40 L110,90 L70,90 Z M100,50 L70,50 L70,80 L100,80 L100,50 Z M90,60 L90,70 L80,70 L80,60 L90,60 Z" id="b"></path>
      <path d="M30,70 L30,80 L80,80 L80,40 L110,40 L110,100 L100,100 L100,50 L90,50 L90,90 L20,90 L20,60 L60,60 L60,50 L20,50 L20,30 L30,30 L30,40 L70,40 L70,70 L30,70 Z" id="t"></path>
      <path d="M30,30 L30,40 L70,40 L70,70 L50,70 L50,80 L80,80 L80,40 L110,40 L110,100 L100,100 L100,50 L90,50 L90,90 L40,90 L40,60 L60,60 L60,50 L20,50 L20,30 L30,30 Z M30,80 L30,90 L20,90 L20,80 L30,80 Z M30,60 L30,70 L20,70 L20,60 L30,60 Z" id="t:"></path>
      <path d="M110,90 L80,90 L80,70 L70,70 L70,100 L60,100 L60,60 L90,60 L90,80 L100,80 L100,50 L50,50 L50,90 L20,90 L20,30 L30,30 L30,80 L40,80 L40,40 L110,40 L110,90 Z" id="s"></path>
      <path d="M110,90 L80,90 L80,70 L70,70 L70,100 L60,100 L60,60 L90,60 L90,80 L100,80 L100,50 L50,50 L50,70 L20,70 L20,30 L30,30 L30,60 L40,60 L40,40 L110,40 L110,90 Z M30,80 L30,90 L20,90 L20,80 L30,80 Z M50,80 L50,90 L40,90 L40,80 L50,80 Z" id="s:"></path>
      <path d="M110,100 L100,100 L100,90 L20,90 L20,60 L100,60 L100,50 L20,50 L20,30 L30,30 L30,40 L110,40 L110,70 L30,70 L30,80 L110,80 L110,100 Z" id="n"></path>
      <path d="M110,100 L100,100 L100,90 L40,90 L40,60 L100,60 L100,50 L20,50 L20,30 L30,30 L30,40 L110,40 L110,70 L50,70 L50,80 L110,80 L110,100 Z M30,60 L30,90 L20,90 L20,60 L30,60 Z" id="n:"></path>
      <path d="M110,40 L110,100 L100,100 L100,50 L50,50 L50,60 L90,60 L90,90 L20,90 L20,30 L30,30 L30,80 L80,80 L80,70 L40,70 L40,40 L110,40 Z" id="r"></path>
      <path d="M110,40 L110,70 L90,70 L90,80 L110,80 L110,100 L100,100 L100,90 L80,90 L80,60 L100,60 L100,50 L50,50 L50,60 L70,60 L70,90 L20,90 L20,30 L30,30 L30,80 L60,80 L60,70 L40,70 L40,40 L110,40 Z" id="d"></path>
      <path d="M110,70 L90,70 L90,100 L80,100 L80,60 L100,60 L100,50 L20,50 L20,30 L30,30 L30,40 L110,40 L110,70 Z M110,80 L110,90 L100,90 L100,80 L110,80 Z M70,60 L70,90 L20,90 L20,60 L70,60 Z M60,70 L30,70 L30,80 L60,80 L60,70 Z" id="e"></path>
      <path d="M110,100 L100,100 L100,70 L90,70 L90,90 L40,90 L40,70 L20,70 L20,30 L30,30 L30,60 L40,60 L40,40 L90,40 L90,60 L110,60 L110,100 Z M30,80 L30,90 L20,90 L20,80 L30,80 Z M80,70 L50,70 L50,80 L80,80 L80,70 Z M80,50 L50,50 L50,60 L80,60 L80,50 Z M110,40 L110,50 L100,50 L100,40 L110,40 Z" id="a"></path>
      <path d="M60,60 L60,40 L110,40 L110,70 L70,70 L70,80 L110,80 L110,100 L100,100 L100,90 L60,90 L60,70 L50,70 L50,90 L20,90 L20,30 L30,30 L30,80 L40,80 L40,60 L60,60 Z M100,50 L70,50 L70,60 L100,60 L100,50 Z M50,40 L50,50 L40,50 L40,40 L50,40 Z" id="m"></path>
      <path d="M90,70 L90,100 L80,100 L80,70 L70,70 L70,90 L40,90 L40,60 L60,60 L60,50 L20,50 L20,30 L30,30 L30,40 L70,40 L70,60 L80,60 L80,40 L110,40 L110,70 L90,70 Z M110,80 L110,90 L100,90 L100,80 L110,80 Z M30,60 L30,90 L20,90 L20,60 L30,60 Z M60,70 L50,70 L50,80 L60,80 L60,70 Z M100,50 L90,50 L90,60 L100,60 L100,50 Z" id="j:"></path>
      <path d="M90,70 L90,100 L80,100 L80,70 L70,70 L70,90 L20,90 L20,60 L60,60 L60,50 L20,50 L20,30 L30,30 L30,40 L70,40 L70,60 L80,60 L80,40 L110,40 L110,70 L90,70 Z M110,80 L110,90 L100,90 L100,80 L110,80 Z M60,70 L30,70 L30,80 L60,80 L60,70 Z M100,50 L90,50 L90,60 L100,60 L100,50 Z" id="j"></path>
      <path d="M70,80 L80,80 L80,40 L110,40 L110,100 L100,100 L100,50 L90,50 L90,90 L60,90 L60,70 L50,70 L50,90 L20,90 L20,60 L40,60 L40,50 L20,50 L20,30 L30,30 L30,40 L50,40 L50,60 L70,60 L70,80 Z M40,70 L30,70 L30,80 L40,80 L40,70 Z M70,40 L70,50 L60,50 L60,40 L70,40 Z" id="h"></path>
      <path d="M90,60 L110,60 L110,100 L100,100 L100,70 L90,70 L90,90 L20,90 L20,60 L80,60 L80,50 L20,50 L20,30 L30,30 L30,40 L90,40 L90,60 Z M80,70 L30,70 L30,80 L80,80 L80,70 Z M110,40 L110,50 L100,50 L100,40 L110,40 Z" id="g"></path>
      <path d="M90,90 L90,100 L80,100 L80,90 L20,90 L20,30 L30,30 L30,80 L80,80 L80,40 L110,40 L110,90 L90,90 Z M100,50 L90,50 L90,80 L100,80 L100,50 Z M70,40 L70,70 L40,70 L40,40 L70,40 Z M60,50 L50,50 L50,60 L60,60 L60,50 Z" id="i"></path>
      <path d="M70,60 L80,60 L80,40 L110,40 L110,90 L60,90 L60,70 L30,70 L30,80 L50,80 L50,100 L40,100 L40,90 L20,90 L20,60 L60,60 L60,50 L20,50 L20,30 L30,30 L30,40 L70,40 L70,60 Z M100,50 L90,50 L90,70 L70,70 L70,80 L100,80 L100,50 Z" id="v"></path>
      <path d="M110,90 L90,90 L90,100 L80,100 L80,90 L20,90 L20,60 L90,60 L90,80 L100,80 L100,50 L20,50 L20,30 L30,30 L30,40 L110,40 L110,90 Z M80,70 L30,70 L30,80 L80,80 L80,70 Z" id="l"></path>
      <path d="M20,90 L20,30 L30,30 L30,80 L60,80 L60,70 L40,70 L40,40 L70,40 L70,60 L80,60 L80,40 L110,40 L110,70 L90,70 L90,80 L110,80 L110,100 L100,100 L100,90 L80,90 L80,70 L70,70 L70,90 L20,90 Z M60,50 L50,50 L50,60 L60,60 L60,50 Z M100,50 L90,50 L90,60 L100,60 L100,50 Z" id="f"></path>
      <path d="M110,100 L100,100 L100,90 L20,90 L20,30 L30,30 L30,80 L110,80 L110,100 Z M110,40 L110,70 L40,70 L40,40 L110,40 Z M100,50 L50,50 L50,60 L100,60 L100,50 Z" id="o"></path>
      <path d="M20,30 L20,0 L50,0 L50,30 L20,30 Z M40,10 L30,10 L30,20 L40,20 L40,10 Z" id="initial"></path>
      <path d="M80,130 L80,100 L110,100 L110,130 L80,130 Z M100,110 L90,110 L90,120 L100,120 L100,110 Z" id="terminal"></path>
      <rect id="characterbreak" x="10" y="100" width="110" height="10"></rect>
      <path d="M130,100 L130,120 L120,120 L120,110 L0,110 L0,90 L10,90 L10,100 L130,100 Z" id="wordbreak"></path>
    </g>
</svg>
